<svg height="512pt" viewBox="0 0 512 512.03241" width="512pt" xmlns="http://www.w3.org/2000/svg"><path d="m405.363281 384.03125c0-41.234375-19.105469-74.664062-42.667969-74.664062-23.566406 0-42.667968 33.429687-42.667968 74.664062 0 41.238281 19.101562 74.667969 42.667968 74.667969 23.5625 0 42.667969-33.429688 42.667969-74.667969zm0 0" fill="#455a64"/><path d="m10.695312 512.03125c-5.886718 0-10.6679682-4.777344-10.6679682-10.664062v-490.667969c0-5.886719 4.7812502-10.667969 10.6679682-10.667969h490.667969c5.886719 0 10.664063 4.78125 10.664063 10.667969s-4.777344 10.667969-10.664063 10.667969h-480v480c0 5.886718-4.78125 10.664062-10.667969 10.664062zm0 0"/><path d="m288.027344 298.699219c-2.730469 0-5.460938-1.046875-7.550782-3.113281l-277.332031-277.335938c-4.160156-4.160156-4.160156-10.921875 0-15.082031 4.160157-4.160157 10.921875-4.160157 15.082031 0l277.332032 277.332031c4.160156 4.160156 4.160156 10.925781 0 15.085938-2.070313 2.066406-4.800782 3.113281-7.53125 3.113281zm0 0"/><path d="m143.601562 153.824219c-3.007812 0-6.058593-1.195313-8.257812-3.390625-15.636719-15.636719.320312-75.09375 37.441406-112.191406 20.160156-20.140626 45.355469-29.761719 65.621094-37.503907 5.484375-2.113281 11.671875.636719 13.78125 6.164063 2.089844 5.503906-.660156 11.667968-6.164062 13.78125-19.328126 7.378906-41.214844 15.722656-58.15625 32.640625-32.851563 32.851562-40.191407 75.070312-36.648438 83.070312 4.160156 4.160157 3.773438 10.410157-.386719 14.570313-1.960937 1.941406-4.585937 2.859375-7.230469 2.859375zm0 0"/><path d="m203.226562 213.898438c-2.730468 0-5.460937-1.042969-7.550781-3.113282-16.085937-16.105468 10.773438-86.1875 60.351563-135.765625 51.285156-51.285156 103.019531-74.710937 123.371094-74.988281 5.761718-.253906 10.730468 4.652344 10.796874 10.539062.0625 5.890626-4.632812 10.730469-10.519531 10.796876-13.632812.167968-60.949219 21.117187-108.566406 68.734374-43.773437 43.796876-60.863281 96.085938-59.113281 107.070313 2.878906 4.160156 2.476562 9.902344-1.238282 13.613281-2.066406 2.089844-4.796874 3.113282-7.53125 3.113282zm7.554688-18.195313"/><path d="m363.335938 330.933594c-2.964844 0-5.996094-1.171875-8.191407-3.371094-13.164062-13.160156-33.261719-132.800781 31.082031-216.703125 13.910157-18.15625 93.011719-108.566406 114.027344-110.7851562 5.78125-.7031248 11.113282 3.6289062 11.710938 9.4960932.597656 5.566407-3.199219 10.578126-8.597656 11.582032-12.140626 5.25-74.304688 68.90625-100.203126 102.675781-56.640624 73.859375-38.164062 179.542969-32.171874 189.546875 4.160156 4.160156 3.796874 10.476562-.382813 14.636719-1.960937 1.984375-4.609375 2.921875-7.273437 2.921875zm0 0"/><path d="m75.015625 85.6875c-2.730469 0-5.460937-1.046875-7.550781-3.117188-13.121094-13.140624 8.554687-38.71875 22.632812-52.800781 7.125-7.125 32.105469-30.589843 46.164063-29.738281 5.890625.257812 10.453125 5.226562 10.21875 11.117188-.234375 5.90625-5.480469 10.855468-11.113281 10.21875-2.433594.597656-14.890626 8.167968-30.1875 23.488281-12.160157 12.160156-18.625 22.417969-20.136719 26.578125 1.34375 3.757812.511719 8.128906-2.496094 11.136718-2.070313 2.070313-4.800781 3.117188-7.53125 3.117188zm0 0"/><path d="m10.695312 252.875c-1.28125 0-2.558593-.214844-3.796874-.703125-5.503907-2.113281-8.257813-8.277344-6.167969-13.78125 7.746093-20.265625 17.347656-45.460937 37.507812-65.621094 37.140625-37.121093 96.550781-53.035156 112.210938-37.417969 4.160156 4.15625 4.160156 10.921876 0 15.082032-3.945313 3.925781-10.195313 4.160156-14.378907.660156-8.683593-3.222656-50.304687 4.332031-82.75 36.777344-16.917968 16.917968-25.28125 38.828125-32.640624 58.15625-1.644532 4.222656-5.695313 6.847656-9.984376 6.847656zm125.695313-101.652344"/><path d="m10.695312 390.21875c-.042968 0-.085937 0-.128906 0-5.910156-.085938-10.6015622-4.925781-10.5390622-10.816406.2773442-20.351563 23.7031252-72.085938 74.9882812-123.371094 49.578125-49.554688 119.679687-76.414062 135.765625-60.328125 4.160156 4.160156 4.160156 10.921875 0 15.082031-3.714844 3.710938-9.453125 4.117188-13.613281 1.238282-11.007813-1.773438-63.273438 15.292968-107.070313 59.113281-47.617187 47.59375-68.566406 94.910156-68.734375 108.542969-.066406 5.847656-4.84375 10.539062-10.667969 10.539062zm185.003907-179.433594"/><path d="m10.671875 511.796875c-.679687 0-1.363281-.0625-2.046875-.191406-5.675781-1.152344-9.429688-6.398438-8.425781-12.097657 2.558593-14.503906 46.550781-94.527343 112.53125-160.511718 63.875-63.847656 123.050781-84.394532 154.539062-82.964844 5.890625.320312 10.390625 5.335938 10.09375 11.222656-.320312 5.867188-5.1875 10.410156-11.222656 10.089844-21.78125-1.109375-75.328125 13.738281-138.324219 76.738281-62.59375 62.589844-104.195312 138.664063-106.648437 149.246094-1.128907 4.949219-5.585938 8.46875-10.496094 8.46875zm0 0"/><path d="m10.695312 146.914062c-5.695312 0-10.433593-4.886718-10.6679682-10.648437-.6171878-14.65625 22.5937502-39.039063 29.7187502-46.164063 14.078125-14.078124 39.636718-35.777343 52.800781-22.632812 4.160156 4.160156 4.160156 10.921875 0 15.082031-3.007813 3.007813-7.402344 3.839844-11.136719 2.496094-4.140625 1.535156-14.402344 7.976563-26.558594 20.136719-15.320312 15.296875-22.890624 27.753906-23.53125 31.019531.253907 5.886719-4.289062 10.433594-10.175781 10.6875-.152343.023437-.300781.023437-.449219.023437zm0 0"/><path d="m437.363281 426.699219c-4.78125 0-9.132812-3.222657-10.328125-8.085938l-8.679687-34.582031h-23.660157c-5.886718 0-10.667968-4.777344-10.667968-10.664062 0-5.890626 4.78125-10.667969 10.667968-10.667969h32c4.886719 0 9.152344 3.328125 10.347657 8.085937l10.664062 42.664063c1.429688 5.71875-2.046875 11.5-7.765625 12.929687-.851562.214844-1.726562.320313-2.578125.320313zm0 0"/><path d="m416.027344 469.367188c-5.886719 0-10.664063-4.78125-10.664063-10.667969v-14.742188l-15.445312-7.722656c-5.269531-2.644531-7.402344-9.042969-4.78125-14.3125 2.644531-5.292969 9.023437-7.402344 14.316406-4.78125l21.332031 10.667969c3.628906 1.835937 5.910156 5.523437 5.910156 9.558594v21.332031c0 5.886719-4.777343 10.667969-10.667968 10.667969zm0 0"/><path d="m437.363281 362.699219c-2.730469 0-5.464843-1.046875-7.554687-3.113281l-15.890625-15.894532-14.464844 7.230469c-5.292969 2.605469-11.671875.492187-14.316406-4.777344s-.488281-11.667969 4.78125-14.316406l21.332031-10.664063c4.09375-2.050781 9.066406-1.257812 12.308594 2.003907l21.332031 21.332031c4.160156 4.160156 4.160156 10.925781 0 15.085938-2.066406 2.066406-4.796875 3.113281-7.527344 3.113281zm0 0"/><path d="m288.027344 426.699219c-.851563 0-1.726563-.105469-2.601563-.320313-5.71875-1.429687-9.195312-7.210937-7.765625-12.929687l10.667969-42.664063c1.214844-4.757812 5.480469-8.085937 10.367187-8.085937h32c5.886719 0 10.667969 4.777343 10.667969 10.667969 0 5.886718-4.78125 10.664062-10.667969 10.664062h-23.660156l-8.660156 34.582031c-1.214844 4.863281-5.546875 8.085938-10.347656 8.085938zm0 0"/><path d="m309.363281 469.367188c-5.890625 0-10.667969-4.78125-10.667969-10.667969v-21.332031c0-4.035157 2.28125-7.722657 5.886719-9.539063l21.335938-10.664063c5.269531-2.625 11.644531-.511718 14.3125 4.777344 2.644531 5.269532.492187 11.667969-4.777344 14.316406l-15.425781 7.699219v14.742188c0 5.886719-4.777344 10.667969-10.664063 10.667969zm0 0"/><path d="m288.027344 362.699219c-2.730469 0-5.460938-1.046875-7.550782-3.113281-4.160156-4.160157-4.160156-10.925782 0-15.085938l21.332032-21.332031c3.242187-3.261719 8.214844-4.074219 12.308594-2.003907l21.335937 10.664063c5.269531 2.648437 7.402344 9.046875 4.777344 14.316406-2.667969 5.269531-9.042969 7.382813-14.3125 4.777344l-14.464844-7.230469-15.894531 15.894532c-2.070313 2.066406-4.800782 3.113281-7.53125 3.113281zm0 0"/><path d="m341.363281 330.699219c-2.730469 0-5.464843-1.046875-7.554687-3.113281l-21.332032-21.335938c-4.160156-4.160156-4.160156-10.921875 0-15.082031 4.160157-4.160157 10.921876-4.160157 15.082032 0l21.332031 21.332031c4.160156 4.160156 4.160156 10.925781 0 15.085938-2.066406 2.066406-4.796875 3.113281-7.527344 3.113281zm0 0"/><path d="m384.027344 330.699219c-2.730469 0-5.460938-1.046875-7.550782-3.113281-4.160156-4.160157-4.160156-10.925782 0-15.085938l21.332032-21.332031c4.160156-4.160157 10.921875-4.160157 15.082031 0 4.160156 4.160156 4.160156 10.921875 0 15.082031l-21.332031 21.335938c-2.070313 2.066406-4.800782 3.113281-7.53125 3.113281zm0 0"/><path d="m362.695312 458.699219c-24.320312 0-42.667968-32.105469-42.667968-74.667969 0-42.558594 18.347656-74.664062 42.667968-74.664062 24.320313 0 42.667969 32.105468 42.667969 74.664062 0 42.5625-18.347656 74.667969-42.667969 74.667969zm0-128c-8.703124 0-21.332031 20.777343-21.332031 53.332031s12.628907 53.335938 21.332031 53.335938c8.703126 0 21.332032-20.78125 21.332032-53.335938s-12.628906-53.332031-21.332032-53.332031zm0 0"/></svg>